<mxfile host="65bd71144e" pages="1">
    <diagram id="F49EyNvaIZhDnBV2fqFG" name="Page-1">
        <mxGraphModel dx="1664" dy="3413" grid="1" gridSize="10" guides="1" tooltips="1" connect="1" arrows="1" fold="1" page="0" pageScale="1" pageWidth="827" pageHeight="1169" background="#FFFFFF" math="0" shadow="0">
            <root>
                <mxCell id="0"/>
                <mxCell id="1" parent="0"/>
                <mxCell id="2" value="执行vue-init文件" style="rounded=1;whiteSpace=wrap;html=1;fontSize=16;fontColor=#000000;labelBackgroundColor=#FFFFFF;fillColor=#FFFFFF;strokeColor=#000000;strokeWidth=2;" vertex="1" parent="1">
                    <mxGeometry x="-35.629999999999995" y="-2630" width="150" height="40" as="geometry"/>
                </mxCell>
                <mxCell id="7" value="" style="edgeStyle=none;html=1;" edge="1" parent="1" source="4" target="6">
                    <mxGeometry relative="1" as="geometry"/>
                </mxCell>
                <mxCell id="4" value="参数判断" style="rhombus;whiteSpace=wrap;html=1;rounded=0;fontSize=16;strokeWidth=2;strokeColor=#000000;fillColor=#FFFFFF;fontColor=#000000;" vertex="1" parent="1">
                    <mxGeometry x="-10.629999999999995" y="-2540" width="100" height="80" as="geometry"/>
                </mxCell>
                <mxCell id="5" value="打印help" style="rounded=1;whiteSpace=wrap;html=1;fontColor=#000000;strokeColor=#000000;strokeWidth=2;fillColor=#FFFFFF;fontSize=16;" vertex="1" parent="1">
                    <mxGeometry x="174.37" y="-2520" width="100" height="40" as="geometry"/>
                </mxCell>
                <mxCell id="9" value="" style="edgeStyle=none;html=1;" edge="1" parent="1" source="6">
                    <mxGeometry relative="1" as="geometry">
                        <mxPoint x="74.35" y="-2270" as="targetPoint"/>
                    </mxGeometry>
                </mxCell>
                <mxCell id="6" value="解析本地存储路径" style="whiteSpace=wrap;html=1;rounded=1;fontSize=16;fontColor=#000000;strokeColor=#000000;strokeWidth=2;fillColor=#FFFFFF;" vertex="1" parent="1">
                    <mxGeometry x="-232.82" y="-2350" width="150" height="40" as="geometry"/>
                </mxCell>
                <mxCell id="11" value="" style="endArrow=classic;html=1;exitX=0.5;exitY=1;exitDx=0;exitDy=0;strokeColor=#000000;strokeWidth=2;" edge="1" parent="1" source="4">
                    <mxGeometry width="50" height="50" relative="1" as="geometry">
                        <mxPoint x="-75.63" y="-2360" as="sourcePoint"/>
                        <mxPoint x="39" y="-2390" as="targetPoint"/>
                    </mxGeometry>
                </mxCell>
                <mxCell id="12" value="成功" style="text;html=1;fontSize=16;fontStyle=1;verticalAlign=middle;align=center;fontColor=#00FF80;" vertex="1" parent="1">
                    <mxGeometry x="21.55" y="-2450" width="100" height="40" as="geometry"/>
                </mxCell>
                <mxCell id="13" value="" style="endArrow=classic;html=1;fontSize=16;fontColor=#000000;strokeColor=#000000;entryX=0.5;entryY=0;entryDx=0;entryDy=0;exitX=0.5;exitY=1;exitDx=0;exitDy=0;rounded=0;strokeWidth=2;" edge="1" parent="1" source="2" target="4">
                    <mxGeometry width="50" height="50" relative="1" as="geometry">
                        <mxPoint x="-75.63" y="-2460" as="sourcePoint"/>
                        <mxPoint x="-25.629999999999995" y="-2510" as="targetPoint"/>
                    </mxGeometry>
                </mxCell>
                <mxCell id="14" value="" style="endArrow=classic;html=1;fontSize=16;fontColor=#000000;strokeColor=#000000;entryX=0;entryY=0.5;entryDx=0;entryDy=0;exitX=1;exitY=0.5;exitDx=0;exitDy=0;strokeWidth=2;" edge="1" parent="1" source="4" target="5">
                    <mxGeometry width="50" height="50" relative="1" as="geometry">
                        <mxPoint x="154.37" y="-2390" as="sourcePoint"/>
                        <mxPoint x="204.37" y="-2440" as="targetPoint"/>
                    </mxGeometry>
                </mxCell>
                <mxCell id="15" value="失败" style="text;strokeColor=none;fillColor=none;html=1;fontSize=16;fontStyle=1;verticalAlign=middle;align=center;fontColor=#FF3333;" vertex="1" parent="1">
                    <mxGeometry x="74.37" y="-2540" width="100" height="40" as="geometry"/>
                </mxCell>
                <mxCell id="16" value="" style="endArrow=classic;html=1;fontSize=16;fontColor=#00FF80;strokeColor=#000000;exitX=1;exitY=0.5;exitDx=0;exitDy=0;rounded=0;strokeWidth=2;entryX=0;entryY=0.5;entryDx=0;entryDy=0;" edge="1" parent="1" source="6" target="18">
                    <mxGeometry width="50" height="50" relative="1" as="geometry">
                        <mxPoint x="-158.45" y="-2100" as="sourcePoint"/>
                        <mxPoint x="-42.81999999999999" y="-2330" as="targetPoint"/>
                    </mxGeometry>
                </mxCell>
                <mxCell id="18" value="解析模板下载地址" style="whiteSpace=wrap;html=1;rounded=1;fontSize=16;fontColor=#000000;strokeColor=#000000;strokeWidth=2;fillColor=#FFFFFF;" vertex="1" parent="1">
                    <mxGeometry x="-32.81999999999999" y="-2350" width="150" height="40" as="geometry"/>
                </mxCell>
                <mxCell id="21" value="执行run方法" style="whiteSpace=wrap;html=1;rounded=1;fontSize=16;fontColor=#000000;strokeColor=#000000;strokeWidth=2;fillColor=#FFFFFF;" vertex="1" parent="1">
                    <mxGeometry x="161.55" y="-2350" width="150" height="40" as="geometry"/>
                </mxCell>
                <mxCell id="22" value="" style="endArrow=classic;html=1;rounded=0;fontSize=16;fontColor=#000000;strokeColor=#000000;strokeWidth=2;entryX=0;entryY=0.5;entryDx=0;entryDy=0;exitX=1;exitY=0.5;exitDx=0;exitDy=0;" edge="1" parent="1" source="18" target="21">
                    <mxGeometry width="50" height="50" relative="1" as="geometry">
                        <mxPoint x="-138.45000000000002" y="-2010" as="sourcePoint"/>
                        <mxPoint x="-88.44999999999999" y="-2060" as="targetPoint"/>
                    </mxGeometry>
                </mxCell>
                <mxCell id="23" value="本地模板？" style="rhombus;whiteSpace=wrap;html=1;rounded=0;labelBackgroundColor=#FFFFFF;fontSize=16;fontColor=#000000;strokeColor=#000000;strokeWidth=2;fillColor=#FFFFFF;" vertex="1" parent="1">
                    <mxGeometry x="-11.56999999999999" y="-2220" width="127.5" height="130" as="geometry"/>
                </mxCell>
                <mxCell id="24" value="" style="endArrow=classic;html=1;rounded=0;fontSize=16;fontColor=#000000;strokeColor=#000000;strokeWidth=2;entryX=0.5;entryY=0;entryDx=0;entryDy=0;exitX=0.5;exitY=1;exitDx=0;exitDy=0;" edge="1" parent="1" source="21" target="23">
                    <mxGeometry width="50" height="50" relative="1" as="geometry">
                        <mxPoint x="-122.82999999999998" y="-2020" as="sourcePoint"/>
                        <mxPoint x="-72.83" y="-2070" as="targetPoint"/>
                        <Array as="points">
                            <mxPoint x="237" y="-2280"/>
                            <mxPoint x="51.8" y="-2280"/>
                        </Array>
                    </mxGeometry>
                </mxCell>
                <mxCell id="26" value="检查版本" style="whiteSpace=wrap;html=1;rounded=1;fontSize=16;fontColor=#000000;strokeColor=#000000;strokeWidth=2;fillColor=#FFFFFF;" vertex="1" parent="1">
                    <mxGeometry x="-22.83" y="-2020" width="150" height="40" as="geometry"/>
                </mxCell>
                <mxCell id="28" value="" style="endArrow=classic;html=1;rounded=0;fontSize=16;fontColor=#000000;strokeColor=#000000;strokeWidth=2;entryX=0.5;entryY=0;entryDx=0;entryDy=0;" edge="1" parent="1" source="23" target="26">
                    <mxGeometry width="50" height="50" relative="1" as="geometry">
                        <mxPoint x="-172.82999999999998" y="-2050" as="sourcePoint"/>
                        <mxPoint x="-122.82999999999998" y="-2100" as="targetPoint"/>
                    </mxGeometry>
                </mxCell>
                <mxCell id="29" value="否" style="text;strokeColor=none;fillColor=none;html=1;fontSize=16;fontStyle=1;verticalAlign=middle;align=center;rounded=0;labelBackgroundColor=#FFFFFF;fontColor=#FF3333;" vertex="1" parent="1">
                    <mxGeometry x="27.170000000000005" y="-2080" width="100" height="40" as="geometry"/>
                </mxCell>
                <mxCell id="30" value="路径存在？" style="rhombus;whiteSpace=wrap;html=1;rounded=0;labelBackgroundColor=#FFFFFF;fontSize=16;fontColor=#000000;strokeColor=#000000;strokeWidth=2;fillColor=#FFFFFF;" vertex="1" parent="1">
                    <mxGeometry x="382.8" y="-2220" width="127.5" height="130" as="geometry"/>
                </mxCell>
                <mxCell id="31" value="" style="endArrow=classic;html=1;rounded=0;fontSize=16;fontColor=#000000;strokeColor=#000000;strokeWidth=2;entryX=0;entryY=0.5;entryDx=0;entryDy=0;exitX=1;exitY=0.5;exitDx=0;exitDy=0;" edge="1" parent="1" source="23" target="30">
                    <mxGeometry width="50" height="50" relative="1" as="geometry">
                        <mxPoint x="-202.82999999999998" y="-2020" as="sourcePoint"/>
                        <mxPoint x="-152.82999999999998" y="-2070" as="targetPoint"/>
                    </mxGeometry>
                </mxCell>
                <mxCell id="32" value="是" style="text;strokeColor=none;fillColor=none;html=1;fontSize=16;fontStyle=1;verticalAlign=middle;align=center;rounded=0;labelBackgroundColor=#FFFFFF;fontColor=#00FF80;" vertex="1" parent="1">
                    <mxGeometry x="174.37" y="-2200" width="100" height="40" as="geometry"/>
                </mxCell>
                <mxCell id="33" value="生成" style="whiteSpace=wrap;html=1;rounded=1;fontSize=16;fontColor=#000000;strokeColor=#000000;strokeWidth=2;fillColor=#FFFFFF;" vertex="1" parent="1">
                    <mxGeometry x="385.93" y="-1710" width="121.25" height="40" as="geometry"/>
                </mxCell>
                <mxCell id="34" value="" style="endArrow=classic;html=1;rounded=0;fontSize=16;fontColor=#000000;strokeColor=#000000;strokeWidth=2;entryX=0.5;entryY=0;entryDx=0;entryDy=0;exitX=0.5;exitY=1;exitDx=0;exitDy=0;" edge="1" parent="1" source="30" target="33">
                    <mxGeometry width="50" height="50" relative="1" as="geometry">
                        <mxPoint x="237.17000000000002" y="-1840" as="sourcePoint"/>
                        <mxPoint x="287.17" y="-1890" as="targetPoint"/>
                    </mxGeometry>
                </mxCell>
                <mxCell id="35" value="是" style="text;strokeColor=none;fillColor=none;html=1;fontSize=16;fontStyle=1;verticalAlign=middle;align=center;rounded=0;labelBackgroundColor=#FFFFFF;fontColor=#00FF80;" vertex="1" parent="1">
                    <mxGeometry x="444.05" y="-1950" width="100" height="40" as="geometry"/>
                </mxCell>
                <mxCell id="36" value="报错" style="whiteSpace=wrap;html=1;rounded=1;fontSize=16;fontColor=#000000;strokeColor=#000000;strokeWidth=2;fillColor=#FFFFFF;" vertex="1" parent="1">
                    <mxGeometry x="592.8" y="-2175" width="150" height="40" as="geometry"/>
                </mxCell>
                <mxCell id="37" value="" style="endArrow=classic;html=1;rounded=0;fontSize=16;fontColor=#000000;strokeColor=#000000;strokeWidth=2;entryX=0;entryY=0.5;entryDx=0;entryDy=0;exitX=1;exitY=0.5;exitDx=0;exitDy=0;" edge="1" parent="1" source="30">
                    <mxGeometry width="50" height="50" relative="1" as="geometry">
                        <mxPoint x="424.05" y="-2250" as="sourcePoint"/>
                        <mxPoint x="592.8" y="-2155" as="targetPoint"/>
                    </mxGeometry>
                </mxCell>
                <mxCell id="38" value="否" style="text;strokeColor=none;fillColor=none;html=1;fontSize=16;fontStyle=1;verticalAlign=middle;align=center;rounded=0;labelBackgroundColor=#FFFFFF;fontColor=#FF3333;" vertex="1" parent="1">
                    <mxGeometry x="492.8" y="-2190" width="100" height="30" as="geometry"/>
                </mxCell>
                <mxCell id="39" value="template有斜杠？" style="rhombus;whiteSpace=wrap;html=1;rounded=0;labelBackgroundColor=#FFFFFF;fontSize=16;fontColor=#000000;strokeColor=#000000;strokeWidth=2;fillColor=#FFFFFF;" vertex="1" parent="1">
                    <mxGeometry x="-27.200000000000003" y="-1920" width="158.75" height="140" as="geometry"/>
                </mxCell>
                <mxCell id="40" value="拼接路径" style="whiteSpace=wrap;html=1;rounded=1;fontSize=16;fontColor=#000000;strokeColor=#000000;strokeWidth=2;fillColor=#FFFFFF;" vertex="1" parent="1">
                    <mxGeometry x="-22.820000000000007" y="-1710" width="150" height="40" as="geometry"/>
                </mxCell>
                <mxCell id="41" value="" style="endArrow=classic;html=1;rounded=0;fontSize=16;fontColor=#000000;strokeColor=#000000;strokeWidth=2;entryX=0.5;entryY=0;entryDx=0;entryDy=0;exitX=0.5;exitY=1;exitDx=0;exitDy=0;" edge="1" parent="1" source="39" target="40">
                    <mxGeometry width="50" height="50" relative="1" as="geometry">
                        <mxPoint x="-162.82999999999998" y="-1640" as="sourcePoint"/>
                        <mxPoint x="-112.83" y="-1690" as="targetPoint"/>
                    </mxGeometry>
                </mxCell>
                <mxCell id="42" value="下载" style="whiteSpace=wrap;html=1;rounded=1;fontSize=16;fontColor=#000000;strokeColor=#000000;strokeWidth=2;fillColor=#FFFFFF;" vertex="1" parent="1">
                    <mxGeometry x="225.92000000000002" y="-1710" width="90" height="40" as="geometry"/>
                </mxCell>
                <mxCell id="43" value="" style="endArrow=classic;html=1;rounded=0;fontSize=16;fontColor=#000000;strokeColor=#000000;strokeWidth=2;entryX=0.5;entryY=0;entryDx=0;entryDy=0;exitX=1;exitY=0.5;exitDx=0;exitDy=0;" edge="1" parent="1" source="39" target="42">
                    <mxGeometry width="50" height="50" relative="1" as="geometry">
                        <mxPoint x="-262.83" y="-1780" as="sourcePoint"/>
                        <mxPoint x="-212.82999999999998" y="-1830" as="targetPoint"/>
                        <Array as="points">
                            <mxPoint x="271.17" y="-1850"/>
                        </Array>
                    </mxGeometry>
                </mxCell>
                <mxCell id="45" value="" style="endArrow=classic;html=1;rounded=0;fontSize=16;fontColor=#000000;strokeColor=#000000;strokeWidth=2;entryX=0.5;entryY=0;entryDx=0;entryDy=0;exitX=0.5;exitY=1;exitDx=0;exitDy=0;" edge="1" parent="1" source="26" target="39">
                    <mxGeometry width="50" height="50" relative="1" as="geometry">
                        <mxPoint x="-212.82999999999998" y="-1840" as="sourcePoint"/>
                        <mxPoint x="-162.82999999999998" y="-1890" as="targetPoint"/>
                    </mxGeometry>
                </mxCell>
                <mxCell id="46" value="是" style="text;strokeColor=none;fillColor=none;html=1;fontSize=16;fontStyle=1;verticalAlign=middle;align=center;rounded=0;labelBackgroundColor=#FFFFFF;fontColor=#00FF80;" vertex="1" parent="1">
                    <mxGeometry x="157.17000000000002" y="-1890" width="100" height="40" as="geometry"/>
                </mxCell>
                <mxCell id="47" value="否" style="text;strokeColor=none;fillColor=none;html=1;fontSize=16;fontStyle=1;verticalAlign=middle;align=center;rounded=0;labelBackgroundColor=#FFFFFF;fontColor=#FF3333;" vertex="1" parent="1">
                    <mxGeometry x="31.55" y="-1770" width="100" height="40" as="geometry"/>
                </mxCell>
                <mxCell id="48" value="" style="endArrow=classic;html=1;rounded=0;fontSize=16;fontColor=#000000;strokeColor=#000000;strokeWidth=2;entryX=0;entryY=0.5;entryDx=0;entryDy=0;exitX=1;exitY=0.5;exitDx=0;exitDy=0;" edge="1" parent="1" source="40" target="42">
                    <mxGeometry width="50" height="50" relative="1" as="geometry">
                        <mxPoint x="117.17" y="-1540" as="sourcePoint"/>
                        <mxPoint x="167.17000000000002" y="-1590" as="targetPoint"/>
                    </mxGeometry>
                </mxCell>
                <mxCell id="49" value="" style="endArrow=classic;html=1;rounded=0;fontSize=16;fontColor=#000000;strokeColor=#000000;strokeWidth=2;entryX=0;entryY=0.5;entryDx=0;entryDy=0;exitX=1;exitY=0.5;exitDx=0;exitDy=0;" edge="1" parent="1" source="42" target="33">
                    <mxGeometry width="50" height="50" relative="1" as="geometry">
                        <mxPoint x="297.17" y="-1670" as="sourcePoint"/>
                        <mxPoint x="217.17000000000002" y="-1610" as="targetPoint"/>
                    </mxGeometry>
                </mxCell>
            </root>
        </mxGraphModel>
    </diagram>
</mxfile>
